<svg width="18" height="19" viewBox="0 0 18 19" fill="none" xmlns="http://www.w3.org/2000/svg">
<path d="M12.75 3.43604H5.25C3.28575 3.43604 1.6875 5.03429 1.6875 6.99854V11.4985C1.6875 13.4628 3.28575 15.061 5.25 15.061H12.75C14.7142 15.061 16.3125 13.4628 16.3125 11.4985V6.99854C16.3125 5.03429 14.7142 3.43604 12.75 3.43604ZM5.25 4.56104H12.75C14.094 4.56104 15.1875 5.65454 15.1875 6.99854V7.18604H2.8125V6.99854C2.8125 5.65454 3.906 4.56104 5.25 4.56104ZM12.75 13.936H5.25C3.906 13.936 2.8125 12.8425 2.8125 11.4985V8.31104H15.1875V11.4985C15.1875 12.8425 14.094 13.936 12.75 13.936ZM8.0625 11.4985C8.0625 11.809 7.8105 12.061 7.5 12.061H5.25C4.9395 12.061 4.6875 11.809 4.6875 11.4985C4.6875 11.188 4.9395 10.936 5.25 10.936H7.5C7.8105 10.936 8.0625 11.188 8.0625 11.4985Z" fill="white"/>
</svg>
