<svg width="30" height="27" viewBox="0 0 30 27" fill="none" xmlns="http://www.w3.org/2000/svg">
<path d="M15 14.25C18.9285 14.25 22.125 11.0535 22.125 7.125C22.125 3.1965 18.9285 0 15 0C11.0715 0 7.875 3.1965 7.875 7.125C7.875 11.0535 11.0715 14.25 15 14.25ZM15 2.25C17.688 2.25 19.875 4.437 19.875 7.125C19.875 9.813 17.688 12 15 12C12.312 12 10.125 9.813 10.125 7.125C10.125 4.437 12.312 2.25 15 2.25ZM25.125 21.225V22.524C25.125 23.7645 24.6705 24.954 23.847 25.8735C23.6265 26.1225 23.3175 26.2485 23.0085 26.2485C22.74 26.2485 22.473 26.154 22.2585 25.962C21.795 25.548 21.756 24.837 22.17 24.3735C22.623 23.8665 22.8735 23.2095 22.8735 22.524V21.225C22.8735 19.3515 21.6315 17.7316 19.854 17.2861C19.563 17.2126 19.26 17.253 19.0125 17.3925C16.5195 18.7815 13.4655 18.7755 10.992 17.3985C10.7325 17.2515 10.4295 17.2139 10.143 17.2844C8.36404 17.7314 7.12198 19.3515 7.12198 21.225V22.524C7.12198 23.2095 7.37247 23.8665 7.82547 24.3735C8.23947 24.837 8.20053 25.548 7.73703 25.962C7.27503 26.3745 6.5625 26.337 6.1485 25.8735C5.325 24.954 4.87051 23.763 4.87051 22.524V21.225C4.87051 18.3195 6.81147 15.8025 9.59097 15.102C10.431 14.889 11.3475 15.0105 12.093 15.438C13.8795 16.431 16.0995 16.4369 17.907 15.4319C18.642 15.0104 19.5555 14.8875 20.4 15.1035C23.184 15.8025 25.125 18.3195 25.125 21.225ZM22.9395 1.00653C23.1465 0.421531 23.7885 0.113984 24.375 0.320984C26.6175 1.11298 28.125 3.2445 28.125 5.625C28.125 7.224 27.441 8.75107 26.25 9.81757C26.034 10.0096 25.767 10.1039 25.5 10.1039C25.191 10.1039 24.8835 9.97794 24.6615 9.72894C24.2475 9.26544 24.2865 8.5545 24.75 8.1405C25.4655 7.5015 25.875 6.585 25.875 5.625C25.875 4.197 24.9705 2.91758 23.625 2.44208C23.0385 2.23508 22.7325 1.59153 22.9395 1.00653ZM29.625 17.3745V18.4576C29.625 19.0786 29.121 19.5826 28.5 19.5826C27.879 19.5826 27.375 19.0786 27.375 18.4576V17.3745C27.375 15.9 26.3985 14.625 25.0005 14.274C24.399 14.1225 24.0315 13.5119 24.183 12.9089C24.336 12.3059 24.9495 11.9416 25.548 12.0916C27.9495 12.6946 29.625 14.8665 29.625 17.3745ZM3.75 10.4835C2.559 9.41702 1.875 7.88995 1.875 6.29095C1.875 3.91045 3.3825 1.77894 5.625 0.986938C6.216 0.779938 6.85346 1.08749 7.06046 1.67249C7.26746 2.25899 6.9615 2.90103 6.375 3.10803C5.0295 3.58353 4.125 4.86295 4.125 6.29095C4.125 7.24945 4.5345 8.16596 5.25 8.80646C5.7135 9.22046 5.75253 9.93158 5.33853 10.3951C5.11803 10.6441 4.809 10.7701 4.5 10.7701C4.233 10.7701 3.9645 10.6755 3.75 10.4835ZM4.99951 14.9399C3.60151 15.2909 2.625 16.566 2.625 18.0405V19.125C2.625 19.746 2.121 20.25 1.5 20.25C0.879 20.25 0.375 19.746 0.375 19.125V18.0419C0.375 15.5339 2.05203 13.362 4.45203 12.759C5.05353 12.612 5.66549 12.9735 5.81699 13.5765C5.96849 14.1765 5.60251 14.7884 4.99951 14.9399Z" fill="#3A3B3F"/>
</svg>
