<svg width="32" height="33" viewBox="0 0 32 33" fill="none" xmlns="http://www.w3.org/2000/svg">
<circle cx="16" cy="16.2485" r="16" fill="#C87800"/>
<path d="M22.3624 10.8875C21.7497 10.274 20.9344 9.93652 20.0659 9.93652C19.1989 9.93652 18.3836 10.274 17.7694 10.8875L9.86963 18.7873C9.56363 19.0925 9.36414 19.4802 9.29289 19.907L8.70041 23.4605C8.65016 23.7613 8.7484 24.0688 8.9644 24.284C9.1429 24.4625 9.38437 24.5608 9.63337 24.5608C9.68437 24.5608 9.73692 24.5571 9.78792 24.5481L13.3421 23.9555C13.7681 23.885 14.1551 23.6855 14.4611 23.3795L22.3609 15.4798C22.9744 14.8663 23.3126 14.051 23.3126 13.1833C23.3126 12.3155 22.9767 11.501 22.3624 10.8875ZM13.6676 22.5845C13.5281 22.724 13.3527 22.814 13.1592 22.8463L9.85315 23.3968L10.4037 20.0916C10.4359 19.8973 10.5267 19.7218 10.6654 19.5831L16.7277 13.5208L19.7291 16.5223L13.6676 22.5845ZM21.5674 14.6848L20.5249 15.7272L17.5234 12.7258L18.5659 11.6833C18.9671 11.2828 19.4996 11.0615 20.0666 11.0615C20.6336 11.0615 21.1669 11.282 21.5674 11.6833C21.9679 12.0845 22.1891 12.617 22.1891 13.184C22.1891 13.751 21.9679 14.2836 21.5674 14.6848Z" fill="white"/>
</svg>
