<svg width="31" height="30" viewBox="0 0 31 30" fill="none" xmlns="http://www.w3.org/2000/svg">
<path d="M28.0405 12.265L18.2395 2.46393C16.894 1.11843 15.1045 0.377441 13.2025 0.377441H6.50195C3.39995 0.377441 0.876953 2.90044 0.876953 6.00244V12.7014C0.876953 14.6049 1.61794 16.3929 2.96344 17.7384L12.7644 27.5395C14.1534 28.9285 15.9774 29.6229 17.8029 29.6229C19.6269 29.6229 21.4524 28.9285 22.84 27.5395L28.039 22.3404C30.8185 19.5624 30.8185 15.043 28.0405 12.265ZM26.449 20.7505L21.25 25.9494C19.3465 27.8499 16.2549 27.8484 14.3559 25.9494L4.55495 16.1485C3.64745 15.241 3.12695 13.9854 3.12695 12.7014V6.00244C3.12695 4.14094 4.64045 2.62744 6.50195 2.62744H13.201C14.4835 2.62744 15.7405 3.14798 16.648 4.05548L26.449 13.8564C28.3495 15.7569 28.3495 18.85 26.449 20.7505ZM10.252 8.25244C10.252 9.08044 9.57995 9.75244 8.75195 9.75244C7.92395 9.75244 7.25195 9.08044 7.25195 8.25244C7.25195 7.42444 7.92395 6.75244 8.75195 6.75244C9.57995 6.75244 10.252 7.42444 10.252 8.25244Z" fill="#3A3B3F"/>
</svg>
