<svg width="32" height="33" viewBox="0 0 32 33" fill="none" xmlns="http://www.w3.org/2000/svg">
<circle cx="16" cy="16.2485" r="16" fill="#C87800"/>
<path d="M22.2702 15.8808L17.3697 10.9803C16.697 10.3075 15.8022 9.93701 14.8512 9.93701H11.501C9.94998 9.93701 8.68848 11.1985 8.68848 12.7495V16.099C8.68848 17.0507 9.05897 17.9447 9.73172 18.6175L14.6322 23.518C15.3267 24.2125 16.2387 24.5597 17.1515 24.5597C18.0635 24.5597 18.9762 24.2125 19.67 23.518L22.2695 20.9185C23.6592 19.5295 23.6592 17.2698 22.2702 15.8808ZM21.4745 20.1235L18.875 22.723C17.9232 23.6732 16.3775 23.6725 15.428 22.723L10.5275 17.8225C10.0737 17.3688 9.81348 16.741 9.81348 16.099V12.7495C9.81348 11.8188 10.5702 11.062 11.501 11.062H14.8505C15.4917 11.062 16.1202 11.3223 16.574 11.776L21.4745 16.6765C22.4247 17.6267 22.4247 19.1733 21.4745 20.1235ZM13.376 13.8745C13.376 14.2885 13.04 14.6245 12.626 14.6245C12.212 14.6245 11.876 14.2885 11.876 13.8745C11.876 13.4605 12.212 13.1245 12.626 13.1245C13.04 13.1245 13.376 13.4605 13.376 13.8745Z" fill="white"/>
</svg>
