<svg width="24" height="25" viewBox="0 0 24 25" fill="none" xmlns="http://www.w3.org/2000/svg">
<path d="M9 9.74854H11V15.7485H9V9.74854Z" fill="#3A3B3F"/>
<path d="M15 15.7485H13V9.74854H15V15.7485Z" fill="#3A3B3F"/>
<path fill-rule="evenodd" clip-rule="evenodd" d="M23 12.7485C23 18.8237 18.0751 23.7485 12 23.7485C5.92487 23.7485 1 18.8237 1 12.7485C1 6.6734 5.92487 1.74854 12 1.74854C18.0751 1.74854 23 6.6734 23 12.7485ZM21 12.7485C21 17.7191 16.9706 21.7485 12 21.7485C7.02944 21.7485 3 17.7191 3 12.7485C3 7.77797 7.02944 3.74854 12 3.74854C16.9706 3.74854 21 7.77797 21 12.7485Z" fill="#3A3B3F"/>
</svg>
