<svg width="18" height="19" viewBox="0 0 18 19" fill="none" xmlns="http://www.w3.org/2000/svg">
<path d="M11.25 1.93604H6.75C3.9585 1.93604 1.6875 4.20704 1.6875 6.99854V11.4985C1.6875 14.29 3.9585 16.561 6.75 16.561H11.25C14.0415 16.561 16.3125 14.29 16.3125 11.4985V6.99854C16.3125 4.20704 14.0415 1.93604 11.25 1.93604ZM15.1875 11.4985C15.1875 13.6698 13.4213 15.436 11.25 15.436H6.75C4.57875 15.436 2.8125 13.6698 2.8125 11.4985V6.99854C2.8125 4.82729 4.57875 3.06104 6.75 3.06104H11.25C13.4213 3.06104 15.1875 4.82729 15.1875 6.99854V11.4985ZM12.5625 9.24854C12.5625 9.55903 12.3105 9.81104 12 9.81104H9.5625V12.2485C9.5625 12.559 9.3105 12.811 9 12.811C8.6895 12.811 8.4375 12.559 8.4375 12.2485V9.81104H6C5.6895 9.81104 5.4375 9.55903 5.4375 9.24854C5.4375 8.93804 5.6895 8.68604 6 8.68604H8.4375V6.24854C8.4375 5.93804 8.6895 5.68604 9 5.68604C9.3105 5.68604 9.5625 5.93804 9.5625 6.24854V8.68604H12C12.3105 8.68604 12.5625 8.93804 12.5625 9.24854Z" fill="#41416E"/>
</svg>
