<svg width="24" height="25" viewBox="0 0 24 25" fill="none" xmlns="http://www.w3.org/2000/svg">
<path d="M15 2.74854H9C5.14 2.74854 2 5.88954 2 9.74854V15.7485C2 19.6075 5.14 22.7485 9 22.7485H15C18.86 22.7485 22 19.6075 22 15.7485V9.74854C22 5.88954 18.86 2.74854 15 2.74854ZM20 15.7485C20 18.5055 17.757 20.7485 15 20.7485H9C6.243 20.7485 4 18.5055 4 15.7485V9.74854C4 6.99154 6.243 4.74854 9 4.74854H15C17.757 4.74854 20 6.99154 20 9.74854V15.7485ZM17 12.7485C17 13.3015 16.552 13.7485 16 13.7485H13V16.7485C13 17.3015 12.552 17.7485 12 17.7485C11.448 17.7485 11 17.3015 11 16.7485V13.7485H8C7.448 13.7485 7 13.3015 7 12.7485C7 12.1955 7.448 11.7485 8 11.7485H11V8.74854C11 8.19554 11.448 7.74854 12 7.74854C12.552 7.74854 13 8.19554 13 8.74854V11.7485H16C16.552 11.7485 17 12.1955 17 12.7485Z" fill="#3A3B3F"/>
</svg>
