<svg width="18" height="14" viewBox="0 0 18 14" fill="none" xmlns="http://www.w3.org/2000/svg">
<path d="M15.8425 6H9.91787V1C9.91787 0.45 9.38465 0 8.73294 0C8.08122 0 7.548 0.45 7.548 1V6H1.62335C0.971635 6 0.438416 6.45 0.438416 7C0.438416 7.55 0.971635 8 1.62335 8H7.548V13C7.548 13.55 8.08122 14 8.73294 14C9.38465 14 9.91787 13.55 9.91787 13V8H15.8425C16.4942 8 17.0275 7.55 17.0275 7C17.0275 6.45 16.4942 6 15.8425 6Z" fill="black"/>
<mask id="mask0_5_264" style="mask-type:alpha" maskUnits="userSpaceOnUse" x="0" y="0" width="18" height="14">
<path d="M15.8425 6H9.91787V1C9.91787 0.45 9.38465 0 8.73294 0C8.08122 0 7.548 0.45 7.548 1V6H1.62335C0.971635 6 0.438416 6.45 0.438416 7C0.438416 7.55 0.971635 8 1.62335 8H7.548V13C7.548 13.55 8.08122 14 8.73294 14C9.38465 14 9.91787 13.55 9.91787 13V8H15.8425C16.4942 8 17.0275 7.55 17.0275 7C17.0275 6.45 16.4942 6 15.8425 6Z" fill="white"/>
</mask>
<g mask="url(#mask0_5_264)">
<rect x="-5.48633" y="-5" width="28.4384" height="24" fill="white"/>
</g>
</svg>
