<svg width="69" height="69" viewBox="0 0 69 69" fill="none" xmlns="http://www.w3.org/2000/svg">
<path d="M43.125 6.21729H25.875C15.1743 6.21729 6.46875 14.9228 6.46875 25.6235V42.8735C6.46875 53.5743 15.1743 62.2798 25.875 62.2798H43.125C53.8258 62.2798 62.5312 53.5743 62.5312 42.8735V25.6235C62.5312 14.9228 53.8258 6.21729 43.125 6.21729ZM58.2188 42.8735C58.2188 51.1967 51.4481 57.9673 43.125 57.9673H25.875C17.5519 57.9673 10.7812 51.1967 10.7812 42.8735V25.6235C10.7812 17.3004 17.5519 10.5298 25.875 10.5298H43.125C51.4481 10.5298 58.2188 17.3004 58.2188 25.6235V42.8735ZM48.1562 34.2485C48.1562 35.4388 47.1903 36.4048 46 36.4048H36.6562V45.7485C36.6562 46.9388 35.6902 47.9048 34.5 47.9048C33.3098 47.9048 32.3438 46.9388 32.3438 45.7485V36.4048H23C21.8097 36.4048 20.8438 35.4388 20.8438 34.2485C20.8438 33.0583 21.8097 32.0923 23 32.0923H32.3438V22.7485C32.3438 21.5583 33.3098 20.5923 34.5 20.5923C35.6902 20.5923 36.6562 21.5583 36.6562 22.7485V32.0923H46C47.1903 32.0923 48.1562 33.0583 48.1562 34.2485Z" fill="#41416E"/>
</svg>
