<svg width="18" height="19" viewBox="0 0 18 19" fill="none" xmlns="http://www.w3.org/2000/svg">
<path d="M15.6953 2.55275C15.1681 2.0255 14.4218 1.81855 13.6981 2.00005L3.86333 4.45851C2.55233 4.78626 1.67783 5.91429 1.68758 7.26579C1.69733 8.61729 2.58683 9.73247 3.90233 10.0422L7.38683 10.862L8.20659 14.3465C8.51634 15.662 9.63157 16.5515 10.9831 16.5612C10.9906 16.5612 10.9973 16.5612 11.0048 16.5612C12.3466 16.5612 13.4641 15.689 13.7903 14.3855L16.2488 4.5508C16.4296 3.8263 16.2226 3.08 15.6953 2.55275ZM15.1568 4.27623L12.6984 14.111C12.4516 15.095 11.6213 15.4243 10.9906 15.4355C10.3568 15.431 9.53406 15.0755 9.30156 14.0878L8.47356 10.5702L11.6476 7.39626C11.8674 7.17651 11.8674 6.82023 11.6476 6.60048C11.4279 6.38073 11.0716 6.38073 10.8518 6.60048L7.67783 9.77452L4.16033 8.94652C3.17258 8.71402 2.81708 7.89121 2.81258 7.25746C2.80808 6.62296 3.15232 5.79573 4.13707 5.54973L13.9711 3.09126C14.0513 3.07101 14.1323 3.06123 14.2118 3.06123C14.4668 3.06123 14.7129 3.16179 14.8996 3.34779C15.1449 3.59304 15.2408 3.94023 15.1568 4.27623Z" fill="white"/>
</svg>
