<svg width="25" height="24" viewBox="0 0 25 24" fill="none" xmlns="http://www.w3.org/2000/svg">
<path d="M18.598 7.96301L20.031 6.53003C20.324 6.23703 20.324 5.76199 20.031 5.46899C19.738 5.17599 19.263 5.17599 18.97 5.46899L17.492 6.94702C16.291 6.03002 14.837 5.43096 13.25 5.28796V3.75H14.5C14.914 3.75 15.25 3.414 15.25 3C15.25 2.586 14.914 2.25 14.5 2.25H10.5C10.086 2.25 9.75 2.586 9.75 3C9.75 3.414 10.086 3.75 10.5 3.75H11.75V5.28796C7.552 5.66896 4.25 9.204 4.25 13.5C4.25 18.049 7.951 21.75 12.5 21.75C17.049 21.75 20.75 18.049 20.75 13.5C20.75 11.368 19.93 9.42801 18.598 7.96301ZM12.5 20.25C8.778 20.25 5.75 17.222 5.75 13.5C5.75 9.778 8.778 6.75 12.5 6.75C16.222 6.75 19.25 9.778 19.25 13.5C19.25 17.222 16.222 20.25 12.5 20.25ZM15.085 15.531C15.344 15.855 15.292 16.326 14.968 16.585C14.829 16.696 14.664 16.75 14.5 16.75C14.28 16.75 14.062 16.654 13.914 16.469L11.914 13.969C11.808 13.836 11.749 13.671 11.749 13.5V10C11.749 9.586 12.085 9.25 12.499 9.25C12.913 9.25 13.249 9.586 13.249 10V13.2371L15.085 15.531Z" fill="white"/>
</svg>
