<svg width="30" height="28" viewBox="0 0 30 28" fill="none" xmlns="http://www.w3.org/2000/svg">
<path d="M7.875 11C7.875 10.379 8.379 9.875 9 9.875H21C21.621 9.875 22.125 10.379 22.125 11C22.125 11.621 21.621 12.125 21 12.125H9C8.379 12.125 7.875 11.621 7.875 11ZM10.5 7.625H19.5C20.121 7.625 20.625 7.121 20.625 6.5C20.625 5.879 20.121 5.375 19.5 5.375H10.5C9.879 5.375 9.375 5.879 9.375 6.5C9.375 7.121 9.879 7.625 10.5 7.625ZM29.625 16.2306V20C29.625 23.9285 26.4285 27.125 22.5 27.125H7.5C3.5715 27.125 0.375 23.9285 0.375 20V16.2306C0.375 15.6246 0.472525 15.026 0.663025 14.4515L3.56552 5.74707C4.53602 2.83407 7.25249 0.875 10.3245 0.875H19.6755C22.7475 0.875 25.4625 2.83257 26.4345 5.74707L29.337 14.4515C29.5275 15.0245 29.625 15.6231 29.625 16.2306ZM3.05997 14.375H10.5C11.121 14.375 11.625 14.879 11.625 15.5C11.625 17.3615 13.1385 18.875 15 18.875C16.8615 18.875 18.375 17.3615 18.375 15.5C18.375 14.879 18.879 14.375 19.5 14.375H26.94L24.3015 6.45807C23.637 4.46457 21.7785 3.125 19.677 3.125H10.326C8.22446 3.125 6.36604 4.46457 5.70154 6.45807L3.05997 14.375ZM27.375 20V16.625H20.5125C19.989 19.1885 17.7165 21.125 15 21.125C12.2835 21.125 10.011 19.1885 9.48752 16.625H2.625V20C2.625 22.688 4.812 24.875 7.5 24.875H22.5C25.188 24.875 27.375 22.688 27.375 20Z" fill="#3A3B3F"/>
</svg>
