<svg width="20" height="23" viewBox="0 0 20 23" fill="none" xmlns="http://www.w3.org/2000/svg">
<path d="M17.3077 5.01686H14.0224C13.5249 5.01686 13.0846 4.69932 12.9277 4.22855L12.636 3.35258C12.4154 2.69165 11.7997 2.24854 11.1037 2.24854H6.89536C6.19936 2.24854 5.58369 2.69163 5.36307 3.35348L5.0714 4.22855C4.91448 4.70025 4.47414 5.01777 3.9766 5.01777H0.692308C0.310154 5.01777 0 5.32792 0 5.71007C0 6.09223 0.310154 6.40238 0.692308 6.40238H1.89044L2.59846 17.0178C2.71939 18.8298 4.23601 20.2485 6.05262 20.2485H11.9483C13.764 20.2485 15.2815 18.8288 15.4024 17.0178L16.1105 6.40238H17.3077C17.6898 6.40238 18 6.09223 18 5.71007C18 5.32792 17.6898 5.01686 17.3077 5.01686ZM6.67659 3.79011C6.70797 3.69596 6.79567 3.63225 6.89536 3.63225H11.1037C11.2034 3.63225 11.2911 3.69598 11.3225 3.78921L11.6141 4.66519C11.6547 4.78704 11.7055 4.90427 11.7628 5.01596H6.23539C6.29262 4.90335 6.3434 4.78706 6.38401 4.66429L6.67659 3.79011ZM14.0197 16.9246C13.9477 18.012 13.0375 18.863 11.9474 18.863H6.05172C4.96249 18.863 4.05136 18.012 3.97936 16.9246L3.27787 6.40148H3.9766C4.07537 6.40148 4.17231 6.38946 4.26923 6.37838C4.308 6.38484 4.3431 6.40148 4.38371 6.40148H13.6145C13.6551 6.40148 13.6901 6.38484 13.7289 6.37838C13.8258 6.38946 13.9218 6.40148 14.0215 6.40148H14.7203L14.0197 16.9246ZM11.5385 10.3246V14.9399C11.5385 15.3221 11.2283 15.6322 10.8462 15.6322C10.464 15.6322 10.1538 15.3221 10.1538 14.9399V10.3246C10.1538 9.9424 10.464 9.63225 10.8462 9.63225C11.2283 9.63225 11.5385 9.9424 11.5385 10.3246ZM7.84615 10.3246V14.9399C7.84615 15.3221 7.536 15.6322 7.15385 15.6322C6.77169 15.6322 6.46154 15.3221 6.46154 14.9399V10.3246C6.46154 9.9424 6.77169 9.63225 7.15385 9.63225C7.536 9.63225 7.84615 9.9424 7.84615 10.3246Z" fill="#F50000"/>
</svg>
