<svg width="18" height="19" viewBox="0 0 18 19" fill="none" xmlns="http://www.w3.org/2000/svg">
<path d="M15.75 3.99854H13.0807C12.7575 3.99854 12.4718 3.79305 12.369 3.4863L12.132 2.77374C11.9273 2.16099 11.355 1.74854 10.7092 1.74854H7.28998C6.64348 1.74854 6.07125 2.16107 5.86725 2.77457L5.63026 3.48557C5.52826 3.79232 5.24174 3.99854 4.91849 3.99854H2.25C1.836 3.99854 1.5 4.33379 1.5 4.74854C1.5 5.16329 1.836 5.49854 2.25 5.49854H3.04875L3.61198 13.948C3.71623 15.5185 5.03101 16.7485 6.60526 16.7485H11.3955C12.9697 16.7485 14.2845 15.5178 14.3887 13.948L14.952 5.49854H15.75C16.164 5.49854 16.5 5.16329 16.5 4.74854C16.5 4.33379 16.164 3.99854 15.75 3.99854ZM7.29076 3.24854L10.71 3.2478L10.947 3.96027C10.9515 3.97377 10.9582 3.98504 10.9635 3.99854H7.03798C7.04248 3.98504 7.05 3.97303 7.0545 3.95953L7.29076 3.24854ZM12.8918 13.8483C12.8393 14.6336 12.1822 15.2485 11.3947 15.2485H6.60452C5.81777 15.2485 5.16 14.6336 5.1075 13.8483L4.55173 5.49854H4.91927C4.99952 5.49854 5.07823 5.48802 5.15698 5.47977C5.18923 5.48427 5.21698 5.49854 5.25073 5.49854H12.7507C12.7837 5.49854 12.8122 5.48352 12.8445 5.47977C12.9232 5.48802 13.0012 5.49854 13.0822 5.49854H13.4497L12.8918 13.8483ZM11.25 8.49854V12.2485C11.25 12.6633 10.914 12.9985 10.5 12.9985C10.086 12.9985 9.75 12.6633 9.75 12.2485V8.49854C9.75 8.08379 10.086 7.74854 10.5 7.74854C10.914 7.74854 11.25 8.08379 11.25 8.49854ZM8.25 8.49854V12.2485C8.25 12.6633 7.914 12.9985 7.5 12.9985C7.086 12.9985 6.75 12.6633 6.75 12.2485V8.49854C6.75 8.08379 7.086 7.74854 7.5 7.74854C7.914 7.74854 8.25 8.08379 8.25 8.49854Z" fill="white"/>
</svg>
