<svg width="24" height="25" viewBox="0 0 24 25" fill="none" xmlns="http://www.w3.org/2000/svg">
<path fill-rule="evenodd" clip-rule="evenodd" d="M18.364 6.38457C21.8787 9.89929 21.8787 15.5978 18.364 19.1125C14.8492 22.6272 9.15076 22.6272 5.63604 19.1125C2.12132 15.5978 2.12132 9.89929 5.63604 6.38457C9.15076 2.86986 14.8492 2.86986 18.364 6.38457ZM16.1925 18.3553L6.39327 8.55602C4.33767 11.2978 4.55666 15.2047 7.05025 17.6983C9.54384 20.1919 13.4507 20.4109 16.1925 18.3553ZM16.9497 7.79879C19.4433 10.2924 19.6623 14.1992 17.6067 16.941L7.80749 7.14181C10.5493 5.0862 14.4562 5.3052 16.9497 7.79879Z" fill="#3A3B3F"/>
</svg>
